<svg width="180" height="123" viewBox="0 0 180 123" fill="none" xmlns="http://www.w3.org/2000/svg">
<path d="M110.367 23.9507H106.956V27.3812H110.367V23.9507Z" fill="#01142A"/>
<path d="M114.514 23.9507H111.101V27.3812H114.514V23.9507Z" fill="#01142A"/>
<path d="M110.367 28.1167H106.956V31.5474H110.367V28.1167Z" fill="#01142A"/>
<path d="M114.514 28.1167H111.101V31.5474H114.514V28.1167Z" fill="#01142A"/>
<path d="M26.6881 57.8542H17.5629V46.8398H11.3822V47.1287V76.6131H17.5629V63.8103H26.6881V76.6131H32.8505V46.8398H26.6881V57.8542Z" fill="#01142A"/>
<path d="M52.7234 54.7297V56.4347C51.9163 55.69 50.992 55.0848 49.9881 54.6437C48.8053 54.1348 47.5307 53.8768 46.2441 53.8858C43.3688 53.8814 40.8953 54.9915 38.8907 57.1742C36.8808 59.3594 35.8739 62.1765 35.8757 65.5669C35.8732 68.8405 36.9156 71.6179 38.992 73.8312C41.0579 76.0426 43.5453 77.1685 46.3925 77.1685H46.4012C47.6197 77.1791 48.828 76.9448 49.955 76.4793C50.9689 76.0393 51.9041 75.4353 52.7234 74.6911V76.6131H58.6896V54.4403H52.7234V54.7297ZM51.3686 69.9426C50.8583 70.4936 50.2369 70.9288 49.546 71.2193C48.8551 71.5099 48.1104 71.649 47.3617 71.6274C46.6222 71.642 45.8881 71.4967 45.2093 71.2013C44.5305 70.9059 43.9227 70.4674 43.4273 69.9153C42.3586 68.7653 41.8244 67.3141 41.8226 65.5075C41.8244 63.7102 42.3509 62.2774 43.3987 61.1507C43.8971 60.6014 44.5072 60.1664 45.1877 59.8752C45.8682 59.5839 46.6031 59.4433 47.3424 59.4628C48.9846 59.467 50.3014 60.0137 51.3686 61.1227C52.4265 62.2319 52.9576 63.6639 52.96 65.488C52.9576 67.3515 52.4265 68.817 51.3686 69.9426V69.9426Z" fill="#01142A"/>
<path d="M67.4741 51.0884H67.4856C68.3105 51.0869 69.101 50.7563 69.6835 50.1694C70.266 49.5824 70.5927 48.7871 70.592 47.9581C70.5912 47.1292 70.263 46.3345 69.6795 45.7486C69.0959 45.1627 68.3048 44.8336 67.4799 44.8336C66.655 44.8336 65.8639 45.1627 65.2803 45.7486C64.6968 46.3345 64.3686 47.1292 64.3678 47.9581C64.367 48.7871 64.6938 49.5824 65.2763 50.1694C65.8587 50.7563 66.6493 51.0869 67.4741 51.0884V51.0884Z" fill="#01142A"/>
<path d="M76.2227 51.0884H76.2343C77.0598 51.0869 77.8509 50.7561 78.4337 50.1687C79.0166 49.5813 79.3436 48.7854 79.3428 47.9558C79.3421 47.1263 79.0136 46.331 78.4296 45.7447C77.8457 45.1584 77.054 44.829 76.2285 44.829C75.403 44.829 74.6113 45.1584 74.0273 45.7447C73.4434 46.331 73.1149 47.1263 73.1141 47.9558C73.1134 48.7854 73.4404 49.5813 74.0232 50.1687C74.6061 50.7561 75.3972 51.0869 76.2227 51.0884Z" fill="#01142A"/>
<path d="M75.581 65.309C75.584 67.3305 75.4606 68.6624 75.2614 69.1994C75.0281 69.9072 74.5769 70.5221 73.9729 70.9552C73.3418 71.3668 72.6004 71.5741 71.8485 71.5494C71.1021 71.5777 70.366 71.3673 69.7461 70.9485C69.1678 70.527 68.7371 69.9323 68.5157 69.2498C68.2591 68.532 68.1143 67.1393 68.1149 65.1302V54.4403H62.0906V63.7207C62.0921 67.1883 62.2948 69.5787 62.7366 70.9552C63.2678 72.7874 64.3832 74.3936 65.9112 75.5267C67.4295 76.6277 69.3995 77.1685 71.7971 77.1685C74.0085 77.1685 75.8589 76.7069 77.3256 75.7627C78.8108 74.79 79.9648 73.3845 80.633 71.7344C81.2554 70.2623 81.5427 67.6694 81.5447 63.8806V54.4403H75.581V65.309Z" fill="#01142A"/>
<path d="M93.438 62.9655L91.464 61.974C90.6224 61.559 90.0934 61.2174 89.9406 61.0367C89.7815 60.8732 89.6906 60.6549 89.6864 60.4263C89.6868 60.2804 89.7236 60.1369 89.7933 60.0089C89.8629 59.8809 89.9634 59.7725 90.0854 59.6934C90.4566 59.4519 90.8953 59.3365 91.3366 59.3645C92.3197 59.3601 93.4956 59.9787 94.8274 61.3053L95.0287 61.5071L98.7466 57.7727L98.5957 57.5746C97.7552 56.4244 96.6557 55.4906 95.3872 54.8495C94.1186 54.2083 92.7171 53.8781 91.2971 53.8858C89.199 53.8825 87.4417 54.5133 86.0771 55.7767C85.425 56.3472 84.9034 57.0527 84.548 57.8447C84.1926 58.6368 84.0118 59.4967 84.018 60.3655C84.0156 63.1584 85.8692 65.4592 89.3911 67.2331L91.2073 68.1456C92.7525 68.9241 93.4182 69.7024 93.4014 70.3306C93.3934 70.523 93.3399 70.7108 93.2451 70.8782C93.1504 71.0456 93.0172 71.1879 92.8567 71.2932C92.4105 71.6183 91.8665 71.7788 91.3163 71.7479C90.7244 71.7492 90.0139 71.5376 89.1889 71.0991C88.3745 70.6609 87.6487 70.0738 87.0486 69.368L86.8392 69.1222L83.1425 73.1681L83.2872 73.3602C85.1951 75.8827 87.8019 77.1685 91.0003 77.1685H91.0195C93.4259 77.1685 95.3905 76.5077 96.8538 75.1694C98.0639 74.045 98.8291 72.5191 99.0084 70.8727C99.1878 69.2263 98.7693 67.5702 97.83 66.2093C97.0056 65.0766 95.5408 64.0086 93.438 62.9655Z" fill="#01142A"/>
<path d="M133.671 53.8858C130.419 53.8825 127.679 55.0063 125.518 57.2375C123.349 59.4663 122.263 62.2896 122.265 65.647C122.263 68.9241 123.357 71.6887 125.527 73.877C127.699 76.0679 130.531 77.1685 133.957 77.1685H133.969C136.174 77.1685 138.096 76.7752 139.721 75.9774C141.405 75.1326 142.844 73.8662 143.899 72.3004L144.096 72.0189L139.064 69.647L138.923 69.785C138.27 70.4456 137.491 70.9672 136.633 71.3183C135.775 71.6694 134.855 71.8429 133.929 71.8284C132.292 71.8266 130.984 71.3915 129.954 70.5351C128.996 69.7296 128.345 68.6156 128.112 67.3824H145.367L145.375 67.0989L145.393 66.0682C145.395 62.4338 144.312 59.4708 142.132 57.2375C139.958 55.0013 137.116 53.8825 133.671 53.8858ZM128.458 62.5409C128.994 61.4483 129.573 60.6904 130.152 60.2602C131.247 59.447 132.579 59.0204 133.94 59.0469C135.185 59.0225 136.405 59.3998 137.422 60.1235C138.275 60.7204 138.929 61.5633 139.296 62.5409H128.458Z" fill="#01142A"/>
<path d="M162.679 54.4403L156.718 67.5567L151.313 54.4403H145.183L145.346 54.8396L153.466 74.7061L148.912 84.5106H155.115L168.834 54.4403H162.679Z" fill="#01142A"/>
<path d="M129.407 21.886L110.717 5.37015L92.0176 21.8324V38.6061L101.005 45.9362V89.0916L110.759 97.2896L120.418 89.0707V70.6737L112.828 64.4823L120.418 58.2914V45.9362L129.407 38.6061V21.886ZM114.108 73.6955V86.1341L110.735 89.002L107.315 86.1268V68.1547L114.108 73.6955ZM124.566 28.9406L123.094 27.6385V35.5862L114.108 42.9163V52.0597V55.2711L107.315 60.8102V42.9163L98.3286 35.5853V27.6666L96.8896 28.9406L95.423 27.2638L102.701 20.818V15.3536H105.715V18.1517L110.711 13.7268L125.754 27.0174V27.0188L126.035 27.2638L124.566 28.9406Z" fill="#01142A"/>
</svg>
