<svg width="325" height="141" viewBox="0 0 325 141" fill="none" xmlns="http://www.w3.org/2000/svg">
<path d="M72.5903 18.9279C85.2426 6.03351 97.7937 0.541418 109.931 0.602896C156.98 0.369282 199.47 80.4239 216.701 139.701H213.057C195.876 80.5966 155.863 0.835545 109.931 0.602896C97.6718 0.66377 85.1027 6.17608 72.5903 18.9279Z" fill="#F9D05E" stroke="#F9D05E"/>
<path d="M6.66695 134.42H28.1411V139.306H0.6604V93.9927H6.66695V134.42Z" fill="#1C1C1C"/>
<path d="M54.8436 139.306C54.5116 138.642 54.2418 137.46 54.0344 135.758C51.3579 138.539 48.1627 139.929 44.4488 139.929C41.1291 139.929 38.4008 138.995 36.2638 137.128C34.1474 135.24 33.0894 132.854 33.0894 129.97C33.0894 126.463 34.4172 123.745 37.073 121.816C39.7494 119.866 43.5048 118.89 48.339 118.89H53.941V116.245C53.941 114.232 53.3394 112.635 52.1359 111.452C50.9326 110.249 49.1586 109.647 46.8141 109.647C44.76 109.647 43.0379 110.166 41.6479 111.203C40.2577 112.241 39.5627 113.496 39.5627 114.969H33.774C33.774 113.288 34.3653 111.67 35.5479 110.114C36.7514 108.537 38.3696 107.292 40.403 106.379C42.4569 105.466 44.7082 105.01 47.1564 105.01C51.0363 105.01 54.0758 105.985 56.2752 107.935C58.4744 109.865 59.6156 112.531 59.6985 115.934V131.433C59.6985 134.524 60.0928 136.983 60.8811 138.808V139.306H54.8436ZM45.2892 134.918C47.0941 134.918 48.8059 134.451 50.4242 133.518C52.0426 132.584 53.2148 131.37 53.941 129.876V122.967H49.4283C42.374 122.967 38.8469 125.032 38.8469 129.161C38.8469 130.966 39.4485 132.376 40.652 133.393C41.8553 134.41 43.4011 134.918 45.2892 134.918Z" fill="#1C1C1C"/>
<path d="M89.5138 135.976C87.273 138.611 83.9846 139.929 79.6483 139.929C76.0588 139.929 73.32 138.891 71.4321 136.817C69.5647 134.721 68.6207 131.629 68.5999 127.542V105.632H74.3575V127.386C74.3575 132.491 76.4323 135.042 80.5819 135.042C84.9805 135.042 87.9059 133.403 89.3583 130.125V105.632H95.1158V139.306H89.6384L89.5138 135.976Z" fill="#1C1C1C"/>
<path d="M109.338 105.632L109.525 109.865C112.098 106.628 115.459 105.01 119.609 105.01C126.725 105.01 130.315 109.025 130.377 117.054V139.306H124.619V117.023C124.599 114.596 124.038 112.801 122.939 111.639C121.86 110.477 120.169 109.896 117.866 109.896C115.999 109.896 114.359 110.394 112.949 111.39C111.538 112.386 110.438 113.693 109.65 115.311V139.306H103.892V105.632H109.338Z" fill="#1C1C1C"/>
<path d="M152.567 135.229C154.621 135.229 156.416 134.607 157.951 133.362C159.486 132.117 160.337 130.561 160.503 128.694H165.949C165.845 130.623 165.181 132.459 163.957 134.202C162.733 135.945 161.094 137.335 159.04 138.373C157.007 139.41 154.849 139.929 152.567 139.929C147.981 139.929 144.33 138.404 141.612 135.354C138.915 132.283 137.566 128.092 137.566 122.781V121.816C137.566 118.538 138.167 115.622 139.372 113.071C140.575 110.519 142.297 108.537 144.537 107.126C146.798 105.715 149.465 105.01 152.536 105.01C156.311 105.01 159.445 106.141 161.935 108.402C164.444 110.664 165.783 113.6 165.949 117.21H160.503C160.337 115.031 159.507 113.247 158.014 111.857C156.54 110.446 154.714 109.741 152.536 109.741C149.611 109.741 147.339 110.799 145.72 112.915C144.123 115.01 143.323 118.05 143.323 122.034V123.123C143.323 127.003 144.123 129.991 145.72 132.086C147.318 134.182 149.6 135.229 152.567 135.229Z" fill="#1C1C1C"/>
<path d="M178.18 109.709C180.732 106.576 184.052 105.01 188.139 105.01C195.256 105.01 198.845 109.025 198.908 117.054V139.306H193.15V117.023C193.129 114.595 192.569 112.801 191.469 111.639C190.39 110.477 188.699 109.896 186.397 109.896C184.528 109.896 182.89 110.394 181.48 111.39C180.068 112.386 178.969 113.693 178.18 115.311V139.306H172.422V91.5029H178.18V109.709Z" fill="#1C1C1C"/>
<path d="M230.217 121.567V139.306H224.241V93.9927H240.954C245.912 93.9927 249.792 95.2583 252.593 97.7896C255.414 100.321 256.826 103.672 256.826 107.842C256.826 112.241 255.446 115.633 252.687 118.019C249.947 120.384 246.016 121.567 240.891 121.567H230.217ZM230.217 116.681H240.954C244.149 116.681 246.597 115.934 248.298 114.44C249.999 112.925 250.85 110.747 250.85 107.904C250.85 105.207 249.999 103.049 248.298 101.431C246.597 99.8125 244.263 98.9722 241.295 98.91H230.217V116.681Z" fill="#1C1C1C"/>
<path d="M283.963 139.306C283.631 138.642 283.362 137.46 283.155 135.758C280.478 138.539 277.283 139.929 273.569 139.929C270.249 139.929 267.52 138.995 265.384 137.128C263.267 135.24 262.209 132.854 262.209 129.97C262.209 126.463 263.537 123.745 266.192 121.816C268.869 119.866 272.625 118.89 277.459 118.89H283.062V116.245C283.062 114.232 282.459 112.635 281.256 111.452C280.053 110.249 278.279 109.647 275.934 109.647C273.879 109.647 272.158 110.166 270.768 111.203C269.378 112.241 268.682 113.496 268.682 114.969H262.894C262.894 113.288 263.485 111.67 264.668 110.114C265.871 108.537 267.49 107.292 269.523 106.379C271.577 105.466 273.828 105.01 276.276 105.01C280.156 105.01 283.196 105.985 285.395 107.935C287.595 109.865 288.736 112.531 288.818 115.934V131.433C288.818 134.524 289.212 136.983 290.001 138.808V139.306H283.963ZM274.409 134.918C276.214 134.918 277.925 134.451 279.544 133.518C281.163 132.584 282.335 131.37 283.062 129.876V122.967H278.548C271.495 122.967 267.966 125.032 267.966 129.161C267.966 130.966 268.568 132.376 269.772 133.393C270.975 134.41 272.521 134.918 274.409 134.918Z" fill="#1C1C1C"/>
<path d="M296.444 122.189C296.444 117.023 297.668 112.873 300.116 109.74C302.564 106.587 305.77 105.01 309.732 105.01C313.675 105.01 316.798 106.359 319.1 109.056V91.5029H324.858V139.306H319.568L319.287 135.696C316.984 138.518 313.778 139.929 309.671 139.929C305.77 139.929 302.585 138.331 300.116 135.136C297.668 131.941 296.444 127.77 296.444 122.625V122.189ZM302.202 122.843C302.202 126.66 302.989 129.648 304.567 131.806C306.143 133.964 308.322 135.042 311.102 135.042C314.754 135.042 317.42 133.404 319.1 130.125V114.658C317.378 111.483 314.733 109.896 311.165 109.896C308.343 109.896 306.143 110.985 304.567 113.164C302.989 115.342 302.202 118.569 302.202 122.843Z" fill="#1C1C1C"/>
</svg>
